<?xml version="1.0" encoding="iso-8859-1"?>
<!-- Generator: Adobe Illustrator 19.0.0, SVG Export Plug-In . SVG Version: 6.00 Build 0)  -->
<svg version="1.1" id="Layer_1" xmlns="http://www.w3.org/2000/svg" xmlns:xlink="http://www.w3.org/1999/xlink" x="0px" y="0px"
	 viewBox="0 0 512.001 512.001" style="enable-background:new 0 0 512.001 512.001;" xml:space="preserve">
<g>
	<rect x="11.131" y="189.217" style="fill:#87DFD6;" width="200.348" height="200.348"/>
	<polyline style="fill:#87DFD6;" points="500.87,211.478 500.87,389.565 300.522,389.565 300.522,189.217 500.87,189.217 
		500.87,211.478 	"/>
</g>
<g>
	<polygon style="fill:#C8F4DE;" points="189.218,467.478 189.218,500.87 211.479,500.87 278.261,500.87 322.783,500.87 
		322.783,467.478 	"/>
	<path style="fill:#C8F4DE;" d="M256.001,100.174c30.736,0,55.652-24.917,55.652-55.652H200.348
		C200.348,75.257,225.265,100.174,256.001,100.174z"/>
</g>
<path style="fill:#4A7DBA;" d="M300.522,434.087h-89.043v-267.13c0-24.588,19.934-44.522,44.522-44.522l0,0
	c24.588,0,44.522,19.933,44.522,44.522V434.087z"/>
<path d="M255.143,496.618c-0.278-0.679-0.623-1.325-1.024-1.924c-0.401-0.613-0.868-1.181-1.38-1.693s-1.08-0.979-1.692-1.38
	c-0.601-0.4-1.247-0.746-1.926-1.024c-0.668-0.278-1.369-0.489-2.081-0.633c-3.606-0.735-7.457,0.455-10.04,3.037
	c-0.512,0.512-0.979,1.08-1.38,1.693c-0.412,0.6-0.746,1.245-1.024,1.924c-0.278,0.668-0.501,1.369-0.646,2.081
	s-0.211,1.447-0.211,2.17c0,0.722,0.067,1.458,0.211,2.17c0.145,0.712,0.367,1.414,0.646,2.093c0.278,0.668,0.612,1.313,1.024,1.914
	c0.401,0.612,0.868,1.18,1.38,1.692c2.07,2.07,4.942,3.262,7.869,3.262c0.723,0,1.458-0.068,2.17-0.211
	c0.712-0.145,1.414-0.356,2.081-0.634c0.679-0.278,1.325-0.623,1.926-1.024c0.612-0.411,1.18-0.879,1.692-1.391
	c0.512-0.512,0.979-1.08,1.38-1.692c0.401-0.601,0.746-1.247,1.024-1.914c0.278-0.679,0.501-1.38,0.634-2.093
	c0.145-0.713,0.223-1.448,0.223-2.17c0-0.723-0.078-1.459-0.223-2.17C255.644,497.987,255.422,497.284,255.143,496.618z"/>
<path d="M500.87,178.087H400.696h-89.043v-11.13c0-26.876-19.15-49.362-44.522-54.532v-2.066
	c31.543-5.316,55.652-32.807,55.652-65.837c0-6.146-4.983-11.13-11.13-11.13h-44.522V11.13c0-6.146-4.983-11.13-11.13-11.13
	s-11.13,4.984-11.13,11.13v22.261h-44.522c-6.147,0-11.13,4.984-11.13,11.13c0,33.031,24.11,60.521,55.652,65.837v2.065
	c-25.372,5.171-44.522,27.657-44.522,54.532v11.13h-89.043H11.131c-6.147,0-11.13,4.984-11.13,11.13v89.043v111.304
	c0,6.146,4.983,11.13,11.13,11.13h100.174h89.043v33.391c0,6.146,4.983,11.13,11.13,11.13h33.391v11.13h-55.652
	c-6.147,0-11.13,4.984-11.13,11.13v33.391c0,6.146,4.983,11.13,11.13,11.13h22.261c6.147,0,11.13-4.984,11.13-11.13
	c0-6.146-4.983-11.13-11.13-11.13h-11.13v-11.13h111.304v11.13h-33.391c-6.147,0-11.13,4.984-11.13,11.13
	c0,6.146,4.983,11.13,11.13,11.13h44.522c6.147,0,11.13-4.984,11.13-11.13v-33.391c0-6.146-4.983-11.13-11.13-11.13h-55.652v-11.13
	h33.391c6.147,0,11.13-4.984,11.13-11.13v-33.391h89.043H500.87c6.147,0,11.13-4.984,11.13-11.13V278.261v-89.043
	C512.001,183.071,507.017,178.087,500.87,178.087z M489.74,267.13h-77.913v-66.783h77.913V267.13z M389.566,200.348v66.783h-77.913
	v-66.783H389.566z M212.888,55.652h86.226c-4.954,19.181-22.406,33.391-43.113,33.391S217.842,74.833,212.888,55.652z
	 M200.348,200.348v66.783h-77.913v-66.783H200.348z M100.174,200.348v66.783H22.261v-66.783H100.174z M22.261,289.391h77.913v89.043
	H22.261V289.391z M122.435,378.435v-89.043h77.913v89.043H122.435z M289.392,422.957h-66.783v-33.391V278.261v-89.043v-22.261
	c0-18.412,14.979-33.391,33.391-33.391s33.391,14.979,33.391,33.391v22.261v89.043v111.304V422.957z M311.653,378.435v-89.043
	h77.913v89.043H311.653z M489.74,378.435h-77.913v-89.043h77.913V378.435z"/>
<path d="M256.001,178.087c-6.147,0-11.13,4.984-11.13,11.13v89.043c0,6.146,4.983,11.13,11.13,11.13s11.13-4.984,11.13-11.13
	v-89.043C267.131,183.071,262.148,178.087,256.001,178.087z"/>
<g>
</g>
<g>
</g>
<g>
</g>
<g>
</g>
<g>
</g>
<g>
</g>
<g>
</g>
<g>
</g>
<g>
</g>
<g>
</g>
<g>
</g>
<g>
</g>
<g>
</g>
<g>
</g>
<g>
</g>
</svg>
